<svg width="70" height="52" viewBox="0 0 70 52" fill="none" xmlns="http://www.w3.org/2000/svg" role="img" aria-labelledby="title">
  <title id="title">PNNL</title>
  <path d="M4 4C13 8 23 9 35 7C28 10 21 12 15 13C22 16 32 17 45 14C35 19 25 21 15 20C22 23 33 24 48 21C36 27 24 29 12 27" stroke="white" stroke-width="2.2" stroke-linecap="round" stroke-linejoin="round"/>
  <path d="M4 12C11 15 20 16 30 15" stroke="white" stroke-width="1.7" stroke-linecap="round"/>
  <path d="M10 30H15.4C18.2 30 20.1 31.6 20.1 34.1C20.1 36.7 18.2 38.3 15.4 38.3H13.4V43H10V30ZM15.1 35.7C16.1 35.7 16.7 35.1 16.7 34.1C16.7 33.2 16.1 32.6 15.1 32.6H13.4V35.7H15.1Z" fill="white"/>
  <path d="M21.9 30H25.4L30.1 37.4V30H33.4V43H30L25.2 35.5V43H21.9V30Z" fill="white"/>
  <path d="M36 30H39.5L44.2 37.4V30H47.5V43H44.1L39.3 35.5V43H36V30Z" fill="white"/>
  <path d="M50.1 30H53.5V40.1H60V43H50.1V30Z" fill="white"/>
</svg>